Coordinates
version=1
nRows=21
nColumns=22
inDegrees=yes

Units are S.I. units (second, meters, Newtons, ...)
If the header above contains a line with 'inDegrees', this indicates whether rotational values are in degrees (yes) or radians (no).

endheader
time	pelvis_tilt	pelvis_list	pelvis_rotation	pelvis_tx	pelvis_ty	pelvis_tz	hip_flexion_r	hip_adduction_r	hip_rotation_r	knee_angle_r	ankle_angle_r	subtalar_angle_r	hip_flexion_l	hip_adduction_l	hip_rotation_l	knee_angle_l	ankle_angle_l	subtalar_angle_l	lumbar_extension	lumbar_bending	lumbar_rotation
      2.89000000	     -6.61895327	     -0.70976611	      2.44390826	      0.25528189	      1.00440931	      0.29744825	      5.91439341	      1.41540587	     -8.24748746	    -19.13236987	     14.19230409	     -0.98980553	     26.41640048	     -8.31824801	    -16.31710329	    -21.64178893	      7.74642675	      3.16997373	     -4.58358967	     -3.74947509	      1.82818115
      2.90000000	     -6.59669405	     -0.73935505	      2.24553379	      0.24979168	      1.00534094	      0.29916043	      6.05702123	      1.58132286	     -8.15258122	    -18.74167093	     13.85890202	     -1.36028912	     26.31807776	     -8.58256216	    -16.36643994	    -23.05713061	      7.86494672	      3.15786829	     -4.57377497	     -3.73620862	      2.00744852
      2.91000000	     -6.55085915	     -0.76163531	      2.02899409	      0.24432734	      1.00624767	      0.30079447	      6.18736069	      1.73551199	     -8.00651832	    -18.38499441	     13.54611936	     -1.56601469	     26.15993480	     -8.83516699	    -16.36890693	    -24.51210826	      7.99380449	      3.09647229	     -4.59650667	     -3.72590530	      2.18359354
      2.92000000	     -6.51745227	     -0.78338343	      1.81148349	      0.23891875	      1.00707223	      0.30230268	      6.33639557	      1.87474258	     -7.90042057	    -18.04747766	     13.25254914	     -1.75620745	     25.98666454	     -9.07620083	    -16.33831492	    -26.00641783	      8.11510856	      3.01061626	     -4.60017417	     -3.70951120	      2.36235591
      2.93000000	     -6.52345896	     -0.81452472	      1.61341981	      0.23346800	      1.00776061	      0.30367206	      6.55365166	      2.01816840	     -7.73376190	    -17.76458796	     12.93102522	     -2.06235736	     25.84624669	     -9.29281205	    -16.17582903	    -27.54493233	      8.24271511	      2.87646380	     -4.56711075	     -3.67316525	      2.47000785
      2.94000000	     -6.51677619	     -0.84518466	      1.42328599	      0.22808186	      1.00841041	      0.30490318	      6.76628319	      2.14444953	     -7.60724773	    -17.51067671	     12.63739177	     -2.26772016	     25.66486099	     -9.49313609	    -15.98316913	    -29.10753653	      8.38568710	      2.72455495	     -4.54256779	     -3.62913250	      2.56777088
      2.95000000	     -6.49817587	     -0.89018169	      1.23924230	      0.22273856	      1.00902138	      0.30599830	      6.98256543	      2.27209123	     -7.49688753	    -17.29730208	     12.36002402	     -2.40107883	     25.44713355	     -9.68572940	    -15.73482848	    -30.68947215	      8.57160804	      2.57013925	     -4.52850197	     -3.56361991	      2.64989735
      2.96000000	     -6.53306685	     -0.94652895	      1.09479276	      0.21736087	      1.00950549	      0.30689694	      7.27877524	      2.39644473	     -7.38693295	    -17.12989447	     12.04779184	     -2.61016689	     25.28122611	     -9.84030980	    -15.36815198	    -32.28608419	      8.72126580	      2.36902216	     -4.45641308	     -3.47166299	      2.64340243
      2.97000000	     -6.51314208	     -1.00815571	      0.94416749	      0.21205214	      1.01003506	      0.30767009	      7.52898902	      2.51454192	     -7.27395606	    -16.99752125	     11.76605551	     -2.68736063	     25.01335912	     -9.97668362	    -14.96941750	    -33.85957236	      8.96612421	      2.21219212	     -4.44197468	     -3.36922875	      2.65920154
      2.98000000	     -6.51797944	     -1.08666056	      0.82373382	      0.20675512	      1.01049858	      0.30826142	      7.82049466	      2.63518042	     -7.18496230	    -16.89788739	     11.45707665	     -2.76909516	     24.75543324	    -10.09154295	    -14.51328715	    -35.42101576	      9.17760180	      2.05094973	     -4.39486438	     -3.23574844	      2.61627026
      2.99000000	     -6.52625568	     -1.16582345	      0.71762318	      0.20149390	      1.01093036	      0.30873457	      8.13275806	      2.74629853	     -7.11282757	    -16.83885245	     11.15028219	     -2.83860515	     24.46637860	    -10.18118408	    -14.04344474	    -36.94268402	      9.38794341	      1.90077460	     -4.33613654	     -3.10264664	      2.53829742
      3.00000000	     -6.53067486	     -1.24524646	      0.61725890	      0.19626948	      1.01135217	      0.30906883	      8.45203051	      2.84704873	     -7.04826133	    -16.80614163	     10.83797829	     -2.88409837	     24.12995098	    -10.24588826	    -13.57372050	    -38.40491392	      9.59818313	      1.77075603	     -4.27509276	     -2.96314058	      2.44512102
      3.01000000	     -6.53626992	     -1.32545339	      0.52506462	      0.19107503	      1.01175383	      0.30930934	      8.78237268	      2.94171026	     -6.99488156	    -16.79623796	     10.52675652	     -2.91529707	     23.75236717	    -10.29748415	    -13.12807192	    -39.79888093	      9.79007285	      1.66047672	     -4.20414346	     -2.82485909	      2.32925011
      3.02000000	     -6.54066161	     -1.39983649	      0.43819798	      0.18592009	      1.01214179	      0.30944801	      9.11936967	      3.02356670	     -6.94544367	    -16.80598909	     10.22157965	     -2.93134229	     23.32260549	    -10.33155385	    -12.72053749	    -41.10503839	      9.96872079	      1.57298947	     -4.12409496	     -2.69250659	      2.20081570
      3.03000000	     -6.54435477	     -1.46688233	      0.35207563	      0.18078653	      1.01251478	      0.30952358	      9.46341033	      3.09417190	     -6.89725845	    -16.83158040	      9.93266613	     -2.93368834	     22.83917119	    -10.35358526	    -12.35807832	    -42.31168332	     10.12540806	      1.51117199	     -4.03764333	     -2.57379058	      2.05847411
      3.04000000	     -6.54514855	     -1.52308860	      0.26727236	      0.17567975	      1.01287905	      0.30952529	      9.80861930	      3.14874640	     -6.85201179	    -16.86598060	      9.65421630	     -2.91556146	     22.29561187	    -10.36043838	    -12.04345404	    -43.40527632	     10.27319690	      1.47512720	     -3.94540879	     -2.47150117	      1.91578738
      3.05000000	     -6.54725441	     -1.57889281	      0.18827168	      0.17058419	      1.01321642	      0.30946364	     10.15907121	      3.19943879	     -6.80894070	    -16.90746147	      9.39883580	     -2.88178841	     21.70440756	    -10.36671833	    -11.76827704	    -44.38821833	     10.39715712	      1.46533869	     -3.84610413	     -2.37353786	      1.75949238
      3.06000000	     -6.55098523	     -1.63618076	      0.11708623	      0.16550195	      1.01352118	      0.30933296	     10.51290170	      3.24812854	     -6.77160899	    -16.95228072	      9.16153684	     -2.82912988	     21.06730283	    -10.37354052	    -11.52288554	    -45.25490843	     10.50044861	      1.48372998	     -3.73664384	     -2.27736336	      1.59237220
      3.07000000	     -6.55397090	     -1.69063566	      0.05303666	      0.16041758	      1.01379397	      0.30913882	     10.87126952	      3.29024187	     -6.73664478	    -17.00686927	      8.94369210	     -2.76027592	     20.38422648	    -10.37523396	    -11.29686545	    -46.00152694	     10.57233161	      1.52688057	     -3.62393391	     -2.18914002	      1.41687857
      3.08000000	     -6.55683660	     -1.74864794	      0.00203419	      0.15532898	      1.01402418	      0.30885241	     11.23274081	      3.33000182	     -6.71113493	    -17.06755906	      8.72913161	     -2.67843650	     19.66288735	    -10.37435919	    -11.07368345	    -46.63066411	     10.61028997	      1.59259799	     -3.50693548	     -2.09765247	      1.23212613
      3.09000000	     -6.56062596	     -1.81192578	     -0.03337913	      0.15023797	      1.01420579	      0.30846412	     11.60119111	      3.36825443	     -6.69288090	    -17.14210212	      8.52124965	     -2.59398128	     18.90495788	    -10.36850385	    -10.84041363	    -47.13434431	     10.60176587	      1.68102707	     -3.38449105	     -1.99853446	      1.03458351
